0
SECTION
2
HEADER
9
$INSUNITS
70
4
0
ENDSEC
0
SECTION
2
TABLES
0
TABLE
2
LTYPE
0
LTYPE
72
65
70
64
2
CONTINUOUS
3
______
73
0
40
0
0
ENDTAB
0
TABLE
2
LAYER
0
ENDTAB
0
ENDSEC
0
SECTION
2
ENTITIES
0
LINE
8
0
10
18.0580841
20
11.0470652
11
30.8605849
21
8.7896389
0
LINE
8
0
10
15.6270097
20
-2.7402433
11
28.4295105
21
-4.9976696
0
LINE
8
0
10
17.4788562
20
10.6414854
11
15.2214299
21
-2.1610154
0
LINE
8
0
10
31.2661647
20
8.210411
11
29.0087384
21
-4.5920898
0
ARC
8
0
10
17.9712601
20
10.5546613
40
0.5
50
80
51
170
0
ARC
8
0
10
30.7737608
20
8.297235
40
0.5
50
350
51
80
0
ARC
8
0
10
15.7138338
20
-2.2478394
40
0.5
50
170
51
260
0
ARC
8
0
10
28.5163345
20
-4.5052657
40
0.5
50
260
51
350
0
LINE
8
0
10
36.8186717
20
7.7390675
11
49.6211725
21
5.4816412
0
LINE
8
0
10
34.3875973
20
-6.048241
11
47.1900981
21
-8.3056673
0
LINE
8
0
10
36.2394438
20
7.3334877
11
33.9820175
21
-5.4690131
0
LINE
8
0
10
50.0267523
20
4.9024133
11
47.769326
21
-7.9000875
0
ARC
8
0
10
36.7318477
20
7.2466636
40
0.5
50
80
51
170
0
ARC
8
0
10
49.5343484
20
4.9892373
40
0.5
50
350
51
80
0
ARC
8
0
10
34.4744214
20
-5.5558371
40
0.5
50
170
51
260
0
ARC
8
0
10
47.2769221
20
-7.8132634
40
0.5
50
260
51
350
0
LINE
8
0
10
55.5792594
20
4.4310697
11
68.3817602
21
2.1736434
0
LINE
8
0
10
53.148185
20
-9.3562388
11
65.9506858
21
-11.6136651
0
LINE
8
0
10
55.0000315
20
4.0254899
11
52.7426052
21
-8.7770109
0
LINE
8
0
10
68.78734
20
1.5944155
11
66.5299137
21
-11.2080853
0
ARC
8
0
10
55.4924354
20
3.9386658
40
0.5
50
80
51
170
0
ARC
8
0
10
68.2949361
20
1.6812395
40
0.5
50
350
51
80
0
ARC
8
0
10
53.2350091
20
-8.8638349
40
0.5
50
170
51
260
0
ARC
8
0
10
66.0375098
20
-11.1212612
40
0.5
50
260
51
350
0
LINE
8
0
10
74.3398471
20
1.1230719
11
87.1423479
21
-1.1343544
0
LINE
8
0
10
71.9087727
20
-12.6642366
11
84.7112735
21
-14.9216629
0
LINE
8
0
10
73.7606192
20
0.7174921
11
71.5031929
21
-12.0850087
0
LINE
8
0
10
87.5479277
20
-1.7135823
11
85.2905014
21
-14.5160831
0
ARC
8
0
10
74.2530231
20
0.630668
40
0.5
50
80
51
170
0
ARC
8
0
10
87.0555238
20
-1.6267583
40
0.5
50
350
51
80
0
ARC
8
0
10
71.9955968
20
-12.1718327
40
0.5
50
170
51
260
0
ARC
8
0
10
84.7980975
20
-14.429259
40
0.5
50
260
51
350
0
LINE
8
0
10
12.4050128
20
-7.3000227
11
25.2075136
21
-9.557449
0
LINE
8
0
10
9.9739384
20
-21.0873312
11
22.7764392
21
-23.3447575
0
LINE
8
0
10
11.8257849
20
-7.7056025
11
9.5683586
21
-20.5081033
0
LINE
8
0
10
25.6130934
20
-10.1366769
11
23.3556671
21
-22.9391777
0
ARC
8
0
10
12.3181888
20
-7.7924266
40
0.5
50
80
51
170
0
ARC
8
0
10
25.1206895
20
-10.0498529
40
0.5
50
350
51
80
0
ARC
8
0
10
10.0607625
20
-20.5949273
40
0.5
50
170
51
260
0
ARC
8
0
10
22.8632632
20
-22.8523536
40
0.5
50
260
51
350
0
LINE
8
0
10
38.2008209
20
-11.8485197
11
51.0033217
21
-14.105946
0
LINE
8
0
10
35.7697465
20
-25.6358282
11
48.5722473
21
-27.8932545
0
LINE
8
0
10
37.621593
20
-12.2540995
11
35.3641667
21
-25.0566003
0
LINE
8
0
10
51.4089015
20
-14.6851739
11
49.1514752
21
-27.4876747
0
ARC
8
0
10
38.1139969
20
-12.3409236
40
0.5
50
80
51
170
0
ARC
8
0
10
50.9164976
20
-14.5983499
40
0.5
50
350
51
80
0
ARC
8
0
10
35.8565706
20
-25.1434243
40
0.5
50
170
51
260
0
ARC
8
0
10
48.6590713
20
-27.4008506
40
0.5
50
260
51
350
0
LINE
8
0
10
56.9614086
20
-15.1565175
11
69.7639094
21
-17.4139438
0
LINE
8
0
10
54.5303342
20
-28.943826
11
67.332835
21
-31.2012523
0
LINE
8
0
10
56.3821807
20
-15.5620973
11
54.1247544
21
-28.3645981
0
LINE
8
0
10
70.1694892
20
-17.9931717
11
67.9120629
21
-30.7956725
0
ARC
8
0
10
56.8745846
20
-15.6489214
40
0.5
50
80
51
170
0
ARC
8
0
10
69.6770853
20
-17.9063477
40
0.5
50
350
51
80
0
ARC
8
0
10
54.6171583
20
-28.4514221
40
0.5
50
170
51
260
0
ARC
8
0
10
67.419659
20
-30.7088484
40
0.5
50
260
51
350
0
LINE
8
0
10
75.7219963
20
-18.4645153
11
88.5244971
21
-20.7219416
0
LINE
8
0
10
73.2909219
20
-32.2518238
11
86.0934227
21
-34.5092501
0
LINE
8
0
10
75.1427684
20
-18.8700951
11
72.8853421
21
-31.6725959
0
LINE
8
0
10
88.9300769
20
-21.3011695
11
86.6726506
21
-34.1036703
0
ARC
8
0
10
75.6351723
20
-18.9569192
40
0.5
50
80
51
170
0
ARC
8
0
10
88.437673
20
-21.2143455
40
0.5
50
350
51
80
0
ARC
8
0
10
73.377746
20
-31.7594199
40
0.5
50
170
51
260
0
ARC
8
0
10
86.1802467
20
-34.0168462
40
0.5
50
260
51
350
0
LINE
8
0
10
2.0617946
20
-24.8201113
11
14.8642954
21
-27.0775376
0
LINE
8
0
10
-0.3692798
20
-38.6074198
11
12.433221
21
-40.8648461
0
LINE
8
0
10
1.4825667
20
-25.2256911
11
-0.7748596
21
-38.0281919
0
LINE
8
0
10
15.2698752
20
-27.6567655
11
13.0124489
21
-40.4592663
0
ARC
8
0
10
1.9749706
20
-25.3125152
40
0.5
50
80
51
170
0
ARC
8
0
10
14.7774713
20
-27.5699415
40
0.5
50
350
51
80
0
ARC
8
0
10
-0.2824557
20
-38.1150159
40
0.5
50
170
51
260
0
ARC
8
0
10
12.520045
20
-40.3724422
40
0.5
50
260
51
350
0
LINE
8
0
10
25.5125293
20
-28.9551085
11
38.3150301
21
-31.2125348
0
LINE
8
0
10
23.0814549
20
-42.742417
11
35.8839557
21
-44.9998433
0
LINE
8
0
10
24.9333014
20
-29.3606883
11
22.6758751
21
-42.1631891
0
LINE
8
0
10
38.7206099
20
-31.7917627
11
36.4631836
21
-44.5942635
0
ARC
8
0
10
25.4257053
20
-29.4475124
40
0.5
50
80
51
170
0
ARC
8
0
10
38.228206
20
-31.7049387
40
0.5
50
350
51
80
0
ARC
8
0
10
23.168279
20
-42.2500131
40
0.5
50
170
51
260
0
ARC
8
0
10
35.9707797
20
-44.5074394
40
0.5
50
260
51
350
0
LINE
8
0
10
44.2731169
20
-32.2631063
11
57.0756177
21
-34.5205326
0
LINE
8
0
10
41.8420425
20
-46.0504148
11
54.6445433
21
-48.3078411
0
LINE
8
0
10
43.693889
20
-32.6686861
11
41.4364627
21
-45.4711869
0
LINE
8
0
10
57.4811975
20
-35.0997605
11
55.2237712
21
-47.9022613
0
ARC
8
0
10
44.1862929
20
-32.7555102
40
0.5
50
80
51
170
0
ARC
8
0
10
56.9887936
20
-35.0129365
40
0.5
50
350
51
80
0
ARC
8
0
10
41.9288666
20
-45.5580109
40
0.5
50
170
51
260
0
ARC
8
0
10
54.7313673
20
-47.8154372
40
0.5
50
260
51
350
0
LINE
8
0
10
63.0337046
20
-35.5711041
11
75.8362054
21
-37.8285304
0
LINE
8
0
10
60.6026302
20
-49.3584126
11
73.405131
21
-51.6158389
0
LINE
8
0
10
62.4544767
20
-35.9766839
11
60.1970504
21
-48.7791847
0
LINE
8
0
10
76.2417852
20
-38.4077583
11
73.9843589
21
-51.2102591
0
ARC
8
0
10
62.9468806
20
-36.063508
40
0.5
50
80
51
170
0
ARC
8
0
10
75.7493813
20
-38.3209343
40
0.5
50
350
51
80
0
ARC
8
0
10
60.6894543
20
-48.8660087
40
0.5
50
170
51
260
0
ARC
8
0
10
73.491955
20
-51.123435
40
0.5
50
260
51
350
0
LINE
8
0
10
81.7942923
20
-38.8791018
11
94.5967931
21
-41.1365281
0
LINE
8
0
10
79.3632179
20
-52.6664103
11
92.1657187
21
-54.9238366
0
LINE
8
0
10
81.2150644
20
-39.2846816
11
78.9576381
21
-52.0871824
0
LINE
8
0
10
95.0023729
20
-41.715756
11
92.7449466
21
-54.5182568
0
ARC
8
0
10
81.7074683
20
-39.3715057
40
0.5
50
80
51
170
0
ARC
8
0
10
94.509969
20
-41.628932
40
0.5
50
350
51
80
0
ARC
8
0
10
79.450042
20
-52.1740064
40
0.5
50
170
51
260
0
ARC
8
0
10
92.2525427
20
-54.4314327
40
0.5
50
260
51
350
0
LINE
8
0
10
5.7890172
20
-44.8211981
11
18.591518
21
-47.0786244
0
LINE
8
0
10
3.3579428
20
-58.6085066
11
16.1604436
21
-60.8659329
0
LINE
8
0
10
5.2097893
20
-45.2267779
11
2.952363
21
-58.0292787
0
LINE
8
0
10
18.9970978
20
-47.6578523
11
16.7396715
21
-60.4603531
0
ARC
8
0
10
5.7021932
20
-45.313602
40
0.5
50
80
51
170
0
ARC
8
0
10
18.5046939
20
-47.5710283
40
0.5
50
350
51
80
0
ARC
8
0
10
3.4447669
20
-58.1161027
40
0.5
50
170
51
260
0
ARC
8
0
10
16.2472676
20
-60.373529
40
0.5
50
260
51
350
0
LINE
8
0
10
59.7257069
20
-54.3316917
11
72.5282077
21
-56.589118
0
LINE
8
0
10
57.2946325
20
-68.1190002
11
70.0971333
21
-70.3764265
0
LINE
8
0
10
59.146479
20
-54.7372715
11
56.8890527
21
-67.5397723
0
LINE
8
0
10
72.9337875
20
-57.1683459
11
70.6763612
21
-69.9708467
0
ARC
8
0
10
59.6388829
20
-54.8240956
40
0.5
50
80
51
170
0
ARC
8
0
10
72.4413836
20
-57.0815219
40
0.5
50
350
51
80
0
ARC
8
0
10
57.3814566
20
-67.6265963
40
0.5
50
170
51
260
0
ARC
8
0
10
70.1839573
20
-69.8840226
40
0.5
50
260
51
350
0
LINE
8
0
10
51.242251
20
-53.8512561
11
57.1510975
21
-54.8931452
0
LINE
8
0
10
48.6375283
20
-68.6233724
11
54.5463748
21
-69.6652615
0
LINE
8
0
10
50.663023
20
-54.2568359
11
48.2319485
21
-68.0441444
0
LINE
8
0
10
57.5566773
20
-55.4723731
11
55.1256028
21
-69.2596817
0
ARC
8
0
10
51.1554269
20
-54.34366
40
0.5
50
80
51
170
0
ARC
8
0
10
57.0642734
20
-55.385549
40
0.5
50
350
51
80
0
ARC
8
0
10
48.7243524
20
-68.1309685
40
0.5
50
170
51
260
0
ARC
8
0
10
54.6331989
20
-69.1728576
40
0.5
50
260
51
350
0
LINE
8
0
10
74.7555209
20
-57.99728
11
80.6643674
21
-59.0391691
0
LINE
8
0
10
72.1507982
20
-72.7693963
11
78.0596447
21
-73.8112854
0
LINE
8
0
10
74.1762929
20
-58.4028598
11
71.7452184
21
-72.1901683
0
LINE
8
0
10
81.0699472
20
-59.618397
11
78.6388727
21
-73.4057056
0
ARC
8
0
10
74.6686968
20
-58.4896839
40
0.5
50
80
51
170
0
ARC
8
0
10
80.5775433
20
-59.5315729
40
0.5
50
350
51
80
0
ARC
8
0
10
72.2376223
20
-72.2769924
40
0.5
50
170
51
260
0
ARC
8
0
10
78.1464688
20
-73.3188815
40
0.5
50
260
51
350
0
LINE
8
0
10
103.3576521
20
-1.1343544
11
116.1601529
21
1.1230719
0
LINE
8
0
10
105.7887265
20
-14.9216629
11
118.5912273
21
-12.6642366
0
LINE
8
0
10
102.9520723
20
-1.7135823
11
105.2094986
21
-14.5160831
0
LINE
8
0
10
116.7393808
20
0.7174921
11
118.9968071
21
-12.0850087
0
ARC
8
0
10
103.4444762
20
-1.6267583
40
0.5
50
100
51
190
0
ARC
8
0
10
116.2469769
20
0.630668
40
0.5
50
10
51
100
0
ARC
8
0
10
105.7019025
20
-14.429259
40
0.5
50
190
51
280
0
ARC
8
0
10
118.5044032
20
-12.1718327
40
0.5
50
280
51
10
0
LINE
8
0
10
122.1182398
20
2.1736434
11
134.9207406
21
4.4310697
0
LINE
8
0
10
124.5493142
20
-11.6136651
11
137.351815
21
-9.3562388
0
LINE
8
0
10
121.71266
20
1.5944155
11
123.9700863
21
-11.2080853
0
LINE
8
0
10
135.4999685
20
4.0254899
11
137.7573948
21
-8.7770109
0
ARC
8
0
10
122.2050639
20
1.6812395
40
0.5
50
100
51
190
0
ARC
8
0
10
135.0075646
20
3.9386658
40
0.5
50
10
51
100
0
ARC
8
0
10
124.4624902
20
-11.1212612
40
0.5
50
190
51
280
0
ARC
8
0
10
137.2649909
20
-8.8638349
40
0.5
50
280
51
10
0
LINE
8
0
10
140.8788275
20
5.4816412
11
153.6813283
21
7.7390675
0
LINE
8
0
10
143.3099019
20
-8.3056673
11
156.1124027
21
-6.048241
0
LINE
8
0
10
140.4732477
20
4.9024133
11
142.730674
21
-7.9000875
0
LINE
8
0
10
154.2605562
20
7.3334877
11
156.5179825
21
-5.4690131
0
ARC
8
0
10
140.9656516
20
4.9892373
40
0.5
50
100
51
190
0
ARC
8
0
10
153.7681523
20
7.2466636
40
0.5
50
10
51
100
0
ARC
8
0
10
143.2230779
20
-7.8132634
40
0.5
50
190
51
280
0
ARC
8
0
10
156.0255786
20
-5.5558371
40
0.5
50
280
51
10
0
LINE
8
0
10
159.6394151
20
8.7896389
11
172.4419159
21
11.0470652
0
LINE
8
0
10
162.0704895
20
-4.9976696
11
174.8729903
21
-2.7402433
0
LINE
8
0
10
159.2338353
20
8.210411
11
161.4912616
21
-4.5920898
0
LINE
8
0
10
173.0211438
20
10.6414854
11
175.2785701
21
-2.1610154
0
ARC
8
0
10
159.7262392
20
8.297235
40
0.5
50
100
51
190
0
ARC
8
0
10
172.5287399
20
10.5546613
40
0.5
50
10
51
100
0
ARC
8
0
10
161.9836655
20
-4.5052657
40
0.5
50
190
51
280
0
ARC
8
0
10
174.7861662
20
-2.2478394
40
0.5
50
280
51
10
0
LINE
8
0
10
111.3557968
20
-19.0679427
11
124.1582976
21
-16.8105164
0
LINE
8
0
10
113.7868712
20
-32.8552512
11
126.589372
21
-30.5978249
0
LINE
8
0
10
110.950217
20
-19.6471706
11
113.2076433
21
-32.4496714
0
LINE
8
0
10
124.7375255
20
-17.2160962
11
126.9949518
21
-30.018597
0
ARC
8
0
10
111.4426209
20
-19.5603466
40
0.5
50
100
51
190
0
ARC
8
0
10
124.2451216
20
-17.3029203
40
0.5
50
10
51
100
0
ARC
8
0
10
113.7000472
20
-32.3628473
40
0.5
50
190
51
280
0
ARC
8
0
10
126.5025479
20
-30.105421
40
0.5
50
280
51
10
0
LINE
8
0
10
130.1163845
20
-15.7599449
11
142.9188853
21
-13.5025186
0
LINE
8
0
10
132.5474589
20
-29.5472534
11
145.3499597
21
-27.2898271
0
LINE
8
0
10
129.7108047
20
-16.3391728
11
131.968231
21
-29.1416736
0
LINE
8
0
10
143.4981132
20
-13.9080984
11
145.7555395
21
-26.7105992
0
ARC
8
0
10
130.2032086
20
-16.2523488
40
0.5
50
100
51
190
0
ARC
8
0
10
143.0057093
20
-13.9949225
40
0.5
50
10
51
100
0
ARC
8
0
10
132.4606349
20
-29.0548495
40
0.5
50
190
51
280
0
ARC
8
0
10
145.2631356
20
-26.7974232
40
0.5
50
280
51
10
0
LINE
8
0
10
148.8769722
20
-12.4519471
11
161.679473
21
-10.1945208
0
LINE
8
0
10
151.3080466
20
-26.2392556
11
164.1105474
21
-23.9818293
0
LINE
8
0
10
148.4713924
20
-13.031175
11
150.7288187
21
-25.8336758
0
LINE
8
0
10
162.2587009
20
-10.6001006
11
164.5161272
21
-23.4026014
0
ARC
8
0
10
148.9637963
20
-12.944351
40
0.5
50
100
51
190
0
ARC
8
0
10
161.766297
20
-10.6869247
40
0.5
50
10
51
100
0
ARC
8
0
10
151.2212226
20
-25.7468517
40
0.5
50
190
51
280
0
ARC
8
0
10
164.0237233
20
-23.4894254
40
0.5
50
280
51
10
0
LINE
8
0
10
167.6375599
20
-9.1439493
11
180.4400607
21
-6.886523
0
LINE
8
0
10
170.0686343
20
-22.9312578
11
182.8711351
21
-20.6738315
0
LINE
8
0
10
167.2319801
20
-9.7231772
11
169.4894064
21
-22.525678
0
LINE
8
0
10
181.0192886
20
-7.2921028
11
183.2767149
21
-20.0946036
0
ARC
8
0
10
167.724384
20
-9.6363532
40
0.5
50
100
51
190
0
ARC
8
0
10
180.5268847
20
-7.3789269
40
0.5
50
10
51
100
0
ARC
8
0
10
169.9818103
20
-22.4388539
40
0.5
50
190
51
280
0
ARC
8
0
10
182.784311
20
-20.1814276
40
0.5
50
280
51
10
0
LINE
8
0
10
124.0440884
20
-36.1745315
11
136.8465892
21
-33.9171052
0
LINE
8
0
10
126.4751628
20
-49.96184
11
139.2776636
21
-47.7044137
0
LINE
8
0
10
123.6385086
20
-36.7537594
11
125.8959349
21
-49.5562602
0
LINE
8
0
10
137.4258171
20
-34.322685
11
139.6832434
21
-47.1251858
0
ARC
8
0
10
124.1309125
20
-36.6669354
40
0.5
50
100
51
190
0
ARC
8
0
10
136.9334132
20
-34.4095091
40
0.5
50
10
51
100
0
ARC
8
0
10
126.3883388
20
-49.4694361
40
0.5
50
190
51
280
0
ARC
8
0
10
139.1908395
20
-47.2120098
40
0.5
50
280
51
10
0
LINE
8
0
10
142.8046761
20
-32.8665337
11
155.6071769
21
-30.6091074
0
LINE
8
0
10
145.2357505
20
-46.6538422
11
158.0382513
21
-44.3964159
0
LINE
8
0
10
142.3990963
20
-33.4457616
11
144.6565226
21
-46.2482624
0
LINE
8
0
10
156.1864048
20
-31.0146872
11
158.4438311
21
-43.817188
0
ARC
8
0
10
142.8915002
20
-33.3589376
40
0.5
50
100
51
190
0
ARC
8
0
10
155.6940009
20
-31.1015113
40
0.5
50
10
51
100
0
ARC
8
0
10
145.1489265
20
-46.1614383
40
0.5
50
190
51
280
0
ARC
8
0
10
157.9514272
20
-43.904012
40
0.5
50
280
51
10
0
LINE
8
0
10
161.5652638
20
-29.5585359
11
174.3677646
21
-27.3011096
0
LINE
8
0
10
163.9963382
20
-43.3458444
11
176.798839
21
-41.0884181
0
LINE
8
0
10
161.159684
20
-30.1377638
11
163.4171103
21
-42.9402646
0
LINE
8
0
10
174.9469925
20
-27.7066894
11
177.2044188
21
-40.5091902
0
ARC
8
0
10
161.6520879
20
-30.0509398
40
0.5
50
100
51
190
0
ARC
8
0
10
174.4545886
20
-27.7935135
40
0.5
50
10
51
100
0
ARC
8
0
10
163.9095142
20
-42.8534405
40
0.5
50
190
51
280
0
ARC
8
0
10
176.7120149
20
-40.5960142
40
0.5
50
280
51
10
0
LINE
8
0
10
180.3258515
20
-26.2505381
11
193.1283523
21
-23.9931118
0
LINE
8
0
10
182.7569259
20
-40.0378466
11
195.5594267
21
-37.7804203
0
LINE
8
0
10
179.9202717
20
-26.829766
11
182.177698
21
-39.6322668
0
LINE
8
0
10
193.7075802
20
-24.3986916
11
195.9650065
21
-37.2011924
0
ARC
8
0
10
180.4126756
20
-26.742942
40
0.5
50
100
51
190
0
ARC
8
0
10
193.2151763
20
-24.4855157
40
0.5
50
10
51
100
0
ARC
8
0
10
182.6701019
20
-39.5454427
40
0.5
50
190
51
280
0
ARC
8
0
10
195.4726026
20
-37.2880164
40
0.5
50
280
51
10
0
LINE
8
0
10
125.0070127
20
-55.3486189
11
137.8095135
21
-53.0911926
0
LINE
8
0
10
127.4380871
20
-69.1359274
11
140.2405879
21
-66.8785011
0
LINE
8
0
10
124.6014329
20
-55.9278468
11
126.8588592
21
-68.7303476
0
LINE
8
0
10
138.3887414
20
-53.4967724
11
140.6461677
21
-66.2992732
0
ARC
8
0
10
125.0938368
20
-55.8410228
40
0.5
50
100
51
190
0
ARC
8
0
10
137.8963375
20
-53.5835965
40
0.5
50
10
51
100
0
ARC
8
0
10
127.3512631
20
-68.6435235
40
0.5
50
190
51
280
0
ARC
8
0
10
140.1537638
20
-66.3860972
40
0.5
50
280
51
10
0
LINE
8
0
10
116.870853
20
-57.79867
11
122.7796995
21
-56.7567809
0
LINE
8
0
10
119.4755757
20
-72.5707863
11
125.3844222
21
-71.5288972
0
LINE
8
0
10
116.4652732
20
-58.3778979
11
118.8963477
21
-72.1652065
0
LINE
8
0
10
123.3589275
20
-57.1623607
11
125.790002
21
-70.9496692
0
ARC
8
0
10
116.9576771
20
-58.2910738
40
0.5
50
100
51
190
0
ARC
8
0
10
122.8665236
20
-57.2491848
40
0.5
50
10
51
100
0
ARC
8
0
10
119.3887516
20
-72.0783824
40
0.5
50
190
51
280
0
ARC
8
0
10
125.2975981
20
-71.0364933
40
0.5
50
280
51
10
0
LINE
8
0
10
140.3841229
20
-53.6526461
11
146.2929694
21
-52.610757
0
LINE
8
0
10
142.9888456
20
-68.4247624
11
148.8976921
21
-67.3828733
0
LINE
8
0
10
139.9785431
20
-54.231874
11
142.4096176
21
-68.0191826
0
LINE
8
0
10
146.8721974
20
-53.0163368
11
149.3032719
21
-66.8036453
0
ARC
8
0
10
140.470947
20
-54.1450499
40
0.5
50
100
51
190
0
ARC
8
0
10
146.3797935
20
-53.1031609
40
0.5
50
10
51
100
0
ARC
8
0
10
142.9020215
20
-67.9323585
40
0.5
50
190
51
280
0
ARC
8
0
10
148.810868
20
-66.8904694
40
0.5
50
280
51
10
0
LINE
8
0
10
174.2535554
20
-46.6651247
11
187.0560562
21
-44.4076984
0
LINE
8
0
10
176.6846298
20
-60.4524332
11
189.4871306
21
-58.1950069
0
LINE
8
0
10
173.8479756
20
-47.2443526
11
176.1054019
21
-60.0468534
0
LINE
8
0
10
187.6352841
20
-44.8132782
11
189.8927104
21
-57.615779
0
ARC
8
0
10
174.3403795
20
-47.1575286
40
0.5
50
100
51
190
0
ARC
8
0
10
187.1428802
20
-44.9001023
40
0.5
50
10
51
100
0
ARC
8
0
10
176.5978058
20
-59.9600293
40
0.5
50
190
51
280
0
ARC
8
0
10
189.4003065
20
-57.702603
40
0.5
50
280
51
10
0
LINE
8
0
10
-7.0399922
20
-71.8790591
11
197.4676391
21
-71.8790591
0
LINE
8
0
10
-7.0399922
20
12.5496978
11
197.4676391
21
12.5496978
0
LINE
8
0
10
-7.0399922
20
-71.8790591
11
-7.0399922
21
12.5496978
0
LINE
8
0
10
197.4676391
20
-71.8790591
11
197.4676391
21
12.5496978
0
ENDSEC
0
EOF